<?xml version="1.0" encoding="utf-8"?>
<!-- Generator: Adobe Illustrator 26.0.3, SVG Export Plug-In . SVG Version: 6.00 Build 0)  -->
<svg version="1.1" id="Layer_1" xmlns="http://www.w3.org/2000/svg" xmlns:xlink="http://www.w3.org/1999/xlink" x="0px" y="0px"
	 viewBox="0 0 300 300" style="enable-background:new 0 0 300 300;" xml:space="preserve">
<style type="text/css">
	.st0{fill:url(#SVGID_1_);}
	.st1{fill:url(#SVGID_00000166671522075023757780000011989271070855095742_);}
	.st2{fill:url(#SVGID_00000005228771429836850790000018204093117847482550_);}
	.st3{fill:url(#SVGID_00000035504013937813400750000001097161976597310646_);}
	.st4{fill:url(#SVGID_00000155110370862488423550000014370948852934735236_);}
	.st5{fill:url(#SVGID_00000104690620426255257200000000138978757309719463_);}
	.st6{fill:url(#SVGID_00000043449660136879579230000010140024169889247129_);}
	.st7{fill:url(#SVGID_00000180345560062116511340000014138028059077690026_);}
	.st8{fill:url(#SVGID_00000152944204005829657610000001059859022721402297_);}
	.st9{fill:url(#SVGID_00000041991366155309368970000001666705967732008356_);}
	.st10{fill:url(#SVGID_00000060741419746895459250000002980507970680384913_);}
</style>
<g>
	<g>
		<g>
			<g>
				<path d="M9.6,164.9c-2.6-1.5-4.7-3.5-6.2-6.1c-1.5-2.6-2.3-5.5-2.3-8.8c0-3.3,0.8-6.2,2.3-8.8s3.6-4.6,6.2-6.1s5.5-2.2,8.6-2.2
					c3.1,0,6,0.7,8.6,2.2c2.6,1.5,4.7,3.5,6.2,6.1c1.5,2.6,2.3,5.5,2.3,8.8c0,3.3-0.8,6.2-2.3,8.8c-1.5,2.6-3.6,4.6-6.2,6.1
					c-2.6,1.5-5.4,2.2-8.6,2.2C15.1,167.1,12.2,166.3,9.6,164.9z M24.6,157c1.6-1.8,2.4-4.1,2.4-7c0-2.9-0.8-5.3-2.4-7
					c-1.6-1.8-3.7-2.6-6.4-2.6c-2.7,0-4.8,0.9-6.4,2.6c-1.6,1.7-2.4,4.1-2.4,7.1c0,2.9,0.8,5.3,2.4,7c1.6,1.8,3.7,2.6,6.4,2.6
					C20.9,159.7,23,158.8,24.6,157z"/>
				<path d="M57.2,167.1l-6.9-10.4l-6.1,10.4h-9.4l10.9-17.3L34.5,133h9.7l6.8,10.3l6-10.3h9.4l-10.8,17.2l11.3,16.9H57.2z"/>
				<path d="M92.1,133v6.6H78.3v7.2h10.4v6.5H78.3v13.8H70V133H92.1z"/>
				<path d="M149.7,167.1l-7.1-12.9h-2v12.9h-8.3V133h13.9c2.7,0,5,0.5,6.9,1.4c1.9,0.9,3.3,2.2,4.2,3.9c0.9,1.6,1.4,3.5,1.4,5.5
					c0,2.3-0.6,4.3-1.9,6.1c-1.3,1.8-3.2,3-5.7,3.8l7.9,13.5H149.7z M140.6,148.3h5.1c1.5,0,2.7-0.4,3.4-1.1
					c0.8-0.7,1.1-1.8,1.1-3.2c0-1.3-0.4-2.3-1.1-3.1c-0.8-0.7-1.9-1.1-3.4-1.1h-5.1V148.3z"/>
				<path d="M184.1,135.1c2.7,1.4,4.8,3.4,6.2,6c1.5,2.6,2.2,5.5,2.2,8.9c0,3.3-0.7,6.3-2.2,8.9c-1.5,2.6-3.6,4.6-6.3,6
					c-2.7,1.4-5.8,2.1-9.4,2.1h-12.8V133h12.8C178.3,133,181.4,133.7,184.1,135.1z M181.5,157.3c1.7-1.7,2.6-4.1,2.6-7.3
					c0-3.1-0.9-5.6-2.6-7.3c-1.7-1.7-4.2-2.6-7.3-2.6h-3.9v19.8h3.9C177.3,159.9,179.7,159,181.5,157.3z"/>
			</g>
		</g>
		<g>
			<g>
				<linearGradient id="SVGID_1_" gradientUnits="userSpaceOnUse" x1="1.1348" y1="150.0237" x2="192.5523" y2="150.0237">
					<stop  offset="0" style="stop-color:#FAAF3B"/>
					<stop  offset="1" style="stop-color:#F05A26"/>
				</linearGradient>
				<path class="st0" d="M9.6,164.9c-2.6-1.5-4.7-3.5-6.2-6.1c-1.5-2.6-2.3-5.5-2.3-8.8c0-3.3,0.8-6.2,2.3-8.8s3.6-4.6,6.2-6.1
					s5.5-2.2,8.6-2.2c3.1,0,6,0.7,8.6,2.2c2.6,1.5,4.7,3.5,6.2,6.1c1.5,2.6,2.3,5.5,2.3,8.8c0,3.3-0.8,6.2-2.3,8.8
					c-1.5,2.6-3.6,4.6-6.2,6.1c-2.6,1.5-5.4,2.2-8.6,2.2C15.1,167.1,12.2,166.3,9.6,164.9z M24.6,157c1.6-1.8,2.4-4.1,2.4-7
					c0-2.9-0.8-5.3-2.4-7c-1.6-1.8-3.7-2.6-6.4-2.6c-2.7,0-4.8,0.9-6.4,2.6c-1.6,1.7-2.4,4.1-2.4,7.1c0,2.9,0.8,5.3,2.4,7
					c1.6,1.8,3.7,2.6,6.4,2.6C20.9,159.7,23,158.8,24.6,157z"/>
				
					<linearGradient id="SVGID_00000131339203735506232270000005560780309441444002_" gradientUnits="userSpaceOnUse" x1="1.1348" y1="150.0237" x2="192.5523" y2="150.0237">
					<stop  offset="0" style="stop-color:#FAAF3B"/>
					<stop  offset="1" style="stop-color:#F05A26"/>
				</linearGradient>
				<path style="fill:url(#SVGID_00000131339203735506232270000005560780309441444002_);" d="M57.2,167.1l-6.9-10.4l-6.1,10.4h-9.4
					l10.9-17.3L34.5,133h9.7l6.8,10.3l6-10.3h9.4l-10.8,17.2l11.3,16.9H57.2z"/>
				
					<linearGradient id="SVGID_00000011750226895066835410000014995884364409857418_" gradientUnits="userSpaceOnUse" x1="1.1348" y1="150.0237" x2="192.5523" y2="150.0237">
					<stop  offset="0" style="stop-color:#FAAF3B"/>
					<stop  offset="1" style="stop-color:#F05A26"/>
				</linearGradient>
				<path style="fill:url(#SVGID_00000011750226895066835410000014995884364409857418_);" d="M92.1,133v6.6H78.3v7.2h10.4v6.5H78.3
					v13.8H70V133H92.1z"/>
				
					<linearGradient id="SVGID_00000179605909707963566350000007446003681306949765_" gradientUnits="userSpaceOnUse" x1="1.1348" y1="150.0237" x2="192.5523" y2="150.0237">
					<stop  offset="0" style="stop-color:#FAAF3B"/>
					<stop  offset="1" style="stop-color:#F05A26"/>
				</linearGradient>
				<path style="fill:url(#SVGID_00000179605909707963566350000007446003681306949765_);" d="M149.7,167.1l-7.1-12.9h-2v12.9h-8.3
					V133h13.9c2.7,0,5,0.5,6.9,1.4c1.9,0.9,3.3,2.2,4.2,3.9c0.9,1.6,1.4,3.5,1.4,5.5c0,2.3-0.6,4.3-1.9,6.1c-1.3,1.8-3.2,3-5.7,3.8
					l7.9,13.5H149.7z M140.6,148.3h5.1c1.5,0,2.7-0.4,3.4-1.1c0.8-0.7,1.1-1.8,1.1-3.2c0-1.3-0.4-2.3-1.1-3.1
					c-0.8-0.7-1.9-1.1-3.4-1.1h-5.1V148.3z"/>
				
					<linearGradient id="SVGID_00000156569663625856272210000014974475587136305818_" gradientUnits="userSpaceOnUse" x1="1.1348" y1="150.0237" x2="192.5523" y2="150.0237">
					<stop  offset="0" style="stop-color:#FAAF3B"/>
					<stop  offset="1" style="stop-color:#F05A26"/>
				</linearGradient>
				<path style="fill:url(#SVGID_00000156569663625856272210000014974475587136305818_);" d="M184.1,135.1c2.7,1.4,4.8,3.4,6.2,6
					c1.5,2.6,2.2,5.5,2.2,8.9c0,3.3-0.7,6.3-2.2,8.9c-1.5,2.6-3.6,4.6-6.3,6c-2.7,1.4-5.8,2.1-9.4,2.1h-12.8V133h12.8
					C178.3,133,181.4,133.7,184.1,135.1z M181.5,157.3c1.7-1.7,2.6-4.1,2.6-7.3c0-3.1-0.9-5.6-2.6-7.3c-1.7-1.7-4.2-2.6-7.3-2.6
					h-3.9v19.8h3.9C177.3,159.9,179.7,159,181.5,157.3z"/>
			</g>
		</g>
		<g>
			<g>
				
					<linearGradient id="SVGID_00000054227830628275139940000014220707837165423250_" gradientUnits="userSpaceOnUse" x1="1.1348" y1="150.0237" x2="192.5523" y2="150.0237">
					<stop  offset="0" style="stop-color:#FDB913"/>
					<stop  offset="0.9916" style="stop-color:#CA7E29"/>
				</linearGradient>
				<path style="fill:url(#SVGID_00000054227830628275139940000014220707837165423250_);" d="M9.6,164.9c-2.6-1.5-4.7-3.5-6.2-6.1
					c-1.5-2.6-2.3-5.5-2.3-8.8c0-3.3,0.8-6.2,2.3-8.8s3.6-4.6,6.2-6.1s5.5-2.2,8.6-2.2c3.1,0,6,0.7,8.6,2.2c2.6,1.5,4.7,3.5,6.2,6.1
					c1.5,2.6,2.3,5.5,2.3,8.8c0,3.3-0.8,6.2-2.3,8.8c-1.5,2.6-3.6,4.6-6.2,6.1c-2.6,1.5-5.4,2.2-8.6,2.2
					C15.1,167.1,12.2,166.3,9.6,164.9z M24.6,157c1.6-1.8,2.4-4.1,2.4-7c0-2.9-0.8-5.3-2.4-7c-1.6-1.8-3.7-2.6-6.4-2.6
					c-2.7,0-4.8,0.9-6.4,2.6c-1.6,1.7-2.4,4.1-2.4,7.1c0,2.9,0.8,5.3,2.4,7c1.6,1.8,3.7,2.6,6.4,2.6C20.9,159.7,23,158.8,24.6,157z"
					/>
				
					<linearGradient id="SVGID_00000129205973603221823200000010328981681792292752_" gradientUnits="userSpaceOnUse" x1="1.1348" y1="150.0237" x2="192.5523" y2="150.0237">
					<stop  offset="0" style="stop-color:#FDB913"/>
					<stop  offset="0.9916" style="stop-color:#CA7E29"/>
				</linearGradient>
				<path style="fill:url(#SVGID_00000129205973603221823200000010328981681792292752_);" d="M57.2,167.1l-6.9-10.4l-6.1,10.4h-9.4
					l10.9-17.3L34.5,133h9.7l6.8,10.3l6-10.3h9.4l-10.8,17.2l11.3,16.9H57.2z"/>
				
					<linearGradient id="SVGID_00000183935144489528167450000005934951572578884277_" gradientUnits="userSpaceOnUse" x1="1.1348" y1="150.0237" x2="192.5523" y2="150.0237">
					<stop  offset="0" style="stop-color:#FDB913"/>
					<stop  offset="0.9916" style="stop-color:#CA7E29"/>
				</linearGradient>
				<path style="fill:url(#SVGID_00000183935144489528167450000005934951572578884277_);" d="M92.1,133v6.6H78.3v7.2h10.4v6.5H78.3
					v13.8H70V133H92.1z"/>
				
					<linearGradient id="SVGID_00000052087252969474138230000003684033382993805194_" gradientUnits="userSpaceOnUse" x1="1.1348" y1="150.0237" x2="192.5523" y2="150.0237">
					<stop  offset="0" style="stop-color:#FDB913"/>
					<stop  offset="0.9916" style="stop-color:#CA7E29"/>
				</linearGradient>
				<path style="fill:url(#SVGID_00000052087252969474138230000003684033382993805194_);" d="M149.7,167.1l-7.1-12.9h-2v12.9h-8.3
					V133h13.9c2.7,0,5,0.5,6.9,1.4c1.9,0.9,3.3,2.2,4.2,3.9c0.9,1.6,1.4,3.5,1.4,5.5c0,2.3-0.6,4.3-1.9,6.1c-1.3,1.8-3.2,3-5.7,3.8
					l7.9,13.5H149.7z M140.6,148.3h5.1c1.5,0,2.7-0.4,3.4-1.1c0.8-0.7,1.1-1.8,1.1-3.2c0-1.3-0.4-2.3-1.1-3.1
					c-0.8-0.7-1.9-1.1-3.4-1.1h-5.1V148.3z"/>
				
					<linearGradient id="SVGID_00000086671890470112639270000000948364909947588736_" gradientUnits="userSpaceOnUse" x1="1.1348" y1="150.0237" x2="192.5523" y2="150.0237">
					<stop  offset="0" style="stop-color:#FDB913"/>
					<stop  offset="0.9916" style="stop-color:#CA7E29"/>
				</linearGradient>
				<path style="fill:url(#SVGID_00000086671890470112639270000000948364909947588736_);" d="M184.1,135.1c2.7,1.4,4.8,3.4,6.2,6
					c1.5,2.6,2.2,5.5,2.2,8.9c0,3.3-0.7,6.3-2.2,8.9c-1.5,2.6-3.6,4.6-6.3,6c-2.7,1.4-5.8,2.1-9.4,2.1h-12.8V133h12.8
					C178.3,133,181.4,133.7,184.1,135.1z M181.5,157.3c1.7-1.7,2.6-4.1,2.6-7.3c0-3.1-0.9-5.6-2.6-7.3c-1.7-1.7-4.2-2.6-7.3-2.6
					h-3.9v19.8h3.9C177.3,159.9,179.7,159,181.5,157.3z"/>
			</g>
		</g>
	</g>
	<g>
		<g>
			<path d="M216.6,139.4v6.9h11.1v6.4h-11.1v7.5h12.6v6.6h-20.9v-34.1h20.9v6.6H216.6z"/>
			<path d="M241.6,160.4h10.9v6.4h-19.2v-34.1h8.3V160.4z"/>
			<path d="M264.8,160.4h10.9v6.4h-19.2v-34.1h8.3V160.4z"/>
			<path d="M298.9,132.8v6.6h-9v27.4h-8.3v-27.4h-9v-6.6H298.9z"/>
		</g>
	</g>
	<g>
		<path d="M111,131.6c-10.2,0-18.4,8.3-18.4,18.4c0,10.2,8.3,18.4,18.4,18.4s18.4-8.3,18.4-18.4C129.4,139.8,121.2,131.6,111,131.6z
			 M94.6,150c0-7.1,4.5-13.1,10.8-15.4c-3.1,3.2-5.1,8.9-5.1,15.4c0,6.5,2.1,12.2,5.1,15.4C99.1,163.1,94.6,157.1,94.6,150z
			 M111,166.4c-0.8,0-1.5-0.1-2.3-0.2c-4.1-1.8-7.1-8.4-7.1-16.2c0-7.8,3-14.4,7.1-16.2c0.7-0.1,1.5-0.2,2.3-0.2
			c9,0,16.4,7.4,16.4,16.4S120.1,166.4,111,166.4z"/>
		
			<linearGradient id="SVGID_00000162338791242835603330000000860997705421096636_" gradientUnits="userSpaceOnUse" x1="106.0608" y1="150" x2="119.292" y2="150">
			<stop  offset="0" style="stop-color:#FDB913"/>
			<stop  offset="0.9916" style="stop-color:#CA7E29"/>
		</linearGradient>
		<path style="fill:url(#SVGID_00000162338791242835603330000000860997705421096636_);" d="M116.7,134.1c-1.7-4.4-4-6.8-6.4-6.8
			c-1.5,0-2.9,0.9-4.2,2.5c-0.1,0.1-0.1,0.3,0,0.4c0.1,0.1,0.1,0.1,0.2,0.1c0.1,0,0.1,0,0.2-0.1c0.7-0.5,1.4-0.8,2.1-0.8
			c2,0,3.9,2.1,5.4,5.9c1.5,3.9,2.3,9.1,2.3,14.6c0,5.5-0.8,10.7-2.3,14.6c-1.4,3.7-3.4,5.9-5.4,5.9c-0.7,0-1.4-0.3-2.1-0.8
			c-0.1,0-0.1-0.1-0.2-0.1c-0.1,0-0.2,0-0.2,0.1c-0.1,0.1-0.1,0.3,0,0.4c1.3,1.7,2.7,2.5,4.2,2.5c2.5,0,4.7-2.4,6.4-6.8
			c1.7-4.3,2.6-9.9,2.6-15.9C119.3,144,118.4,138.3,116.7,134.1z"/>
	</g>
</g>
</svg>
